<svg xmlns="http://www.w3.org/2000/svg" width="59" height="59" fill="none"><path fill="#ADD26E" d="M29.473 0C13.327 0 0 13.327 0 29.445c0 16.117 13.355 29.444 29.502 29.444 16.117 0 29.415-13.327 29.415-29.445C58.917 13.328 45.591 0 29.473 0ZM14.181 29.473c0-.854.313-1.51.997-2.164l10.052-9.882c.513-.484 1.082-.74 1.822-.74 1.396 0 2.393 1.054 2.393 2.478 0 .712-.285 1.366-.77 1.822l-3.587 3.417-3.304 2.648 6.066-.284h14.38c1.538 0 2.62 1.139 2.62 2.677 0 1.566-1.11 2.705-2.62 2.705H27.85l-6.066-.285 3.332 2.648 3.56 3.417c.455.456.769 1.111.769 1.823 0 1.424-.997 2.449-2.393 2.449-.74 0-1.31-.2-1.822-.712l-10.052-9.91c-.712-.655-.997-1.31-.997-2.107Z"/></svg>