<svg xmlns="http://www.w3.org/2000/svg" width="50" height="50" fill="none"><path fill="#80BC00" d="m27.432 32.068 1.162-6.328h-6.763v-2.238c0-3.344 1.312-4.63 4.707-4.63 1.054 0 1.903.026 2.392.077v-5.736c-.926-.257-3.19-.514-4.502-.514-6.919 0-10.109 3.267-10.109 10.314v2.727h-4.27v6.328h4.27v13.768a20.74 20.74 0 0 0 7.511.458V32.068h5.602Z"/><path fill="#80BC00" d="M25.147 5.159c6.578 0 7.358.029 9.945.144 2.404.106 3.702.51 4.568.846 1.145.443 1.972.981 2.828 1.837.865.866 1.394 1.683 1.837 2.828.336.866.74 2.174.846 4.568.115 2.597.144 3.376.144 9.945 0 6.578-.029 7.357-.144 9.945-.106 2.404-.51 3.702-.846 4.568-.443 1.144-.982 1.972-1.837 2.828-.866.865-1.684 1.394-2.828 1.837-.866.336-2.174.74-4.568.846-2.597.115-3.376.144-9.945.144-6.578 0-7.357-.029-9.945-.144-2.404-.106-3.702-.51-4.568-.846-1.145-.443-1.972-.982-2.828-1.837-.865-.866-1.394-1.684-1.837-2.828-.336-.866-.74-2.174-.846-4.568-.115-2.597-.144-3.376-.144-9.945 0-6.579.029-7.358.144-9.945.106-2.404.51-3.702.846-4.568.443-1.145.981-1.972 1.837-2.828.866-.865 1.683-1.394 2.828-1.837.866-.336 2.174-.74 4.568-.846 2.588-.115 3.367-.144 9.945-.144Zm0-4.434C18.463.725 17.626.754 15 .87c-2.616.116-4.414.539-5.972 1.145-1.626.635-3 1.471-4.367 2.847C3.286 6.226 2.45 7.6 1.815 9.217 1.209 10.785.785 12.574.67 15.19.555 17.825.526 18.662.526 25.346c0 6.685.029 7.521.144 10.147.116 2.616.539 4.414 1.145 5.972.634 1.626 1.471 3.001 2.846 4.367 1.366 1.365 2.741 2.212 4.357 2.837 1.568.606 3.357 1.029 5.973 1.144 2.625.116 3.462.145 10.146.145 6.685 0 7.521-.03 10.147-.145 2.616-.115 4.415-.538 5.973-1.144 1.615-.625 2.99-1.471 4.356-2.837 1.366-1.366 2.212-2.741 2.837-4.357.606-1.568 1.03-3.357 1.145-5.973.115-2.625.144-3.462.144-10.146 0-6.684-.029-7.521-.144-10.147-.115-2.616-.539-4.414-1.145-5.972-.605-1.635-1.442-3.01-2.818-4.376-1.365-1.366-2.74-2.212-4.356-2.838C39.708 1.418 37.919.994 35.303.88 32.668.754 31.831.725 25.147.725Z"/></svg>