<svg xmlns="http://www.w3.org/2000/svg" width="50" height="50" fill="none"><path fill="#80BC00" d="M24.621 4.434c6.579 0 7.358.029 9.945.144 2.404.106 3.703.51 4.568.846 1.145.443 1.972.981 2.828 1.837.865.866 1.394 1.683 1.837 2.828.336.865.74 2.173.846 4.568.115 2.597.144 3.376.144 9.945 0 6.578-.029 7.357-.144 9.945-.106 2.404-.51 3.702-.846 4.568-.443 1.144-.981 1.971-1.837 2.828-.866.865-1.683 1.394-2.828 1.836-.865.337-2.173.741-4.568.847-2.597.115-3.376.144-9.945.144-6.578 0-7.357-.029-9.944-.144-2.405-.106-3.703-.51-4.569-.847-1.144-.442-1.971-.98-2.827-1.837-.866-.865-1.395-1.683-1.837-2.827-.337-.866-.741-2.174-.847-4.569-.115-2.596-.144-3.375-.144-9.944 0-6.579.029-7.358.144-9.945.106-2.404.51-3.703.847-4.568.442-1.145.98-1.972 1.837-2.828.865-.865 1.683-1.394 2.827-1.837.866-.336 2.174-.74 4.569-.846 2.587-.115 3.366-.144 9.944-.144Zm0-4.434c-6.684 0-7.52.029-10.146.144C11.858.26 10.06.683 8.502 1.29c-1.625.635-3 1.471-4.366 2.847C2.76 5.5 1.924 6.876 1.289 8.492.683 10.06.259 11.85.144 14.465.03 17.1 0 17.937 0 24.62c0 6.684.029 7.521.144 10.147.116 2.616.539 4.414 1.145 5.972.635 1.626 1.471 3.001 2.847 4.367 1.365 1.365 2.74 2.212 4.356 2.837 1.568.606 3.357 1.029 5.973 1.144 2.625.116 3.462.145 10.146.145 6.685 0 7.521-.03 10.147-.145 2.616-.115 4.415-.538 5.973-1.144 1.615-.625 2.99-1.472 4.356-2.837 1.366-1.366 2.212-2.741 2.838-4.357.606-1.568 1.029-3.357 1.144-5.973.115-2.625.144-3.462.144-10.146 0-6.684-.029-7.521-.144-10.147-.115-2.616-.538-4.414-1.144-5.972-.606-1.635-1.443-3.01-2.818-4.376-1.366-1.366-2.741-2.212-4.357-2.838C39.182.692 37.393.27 34.777.154 32.142.029 31.305 0 24.621 0Z"/><path fill="#80BC00" d="M24.621 11.974c-6.982 0-12.647 5.665-12.647 12.647s5.665 12.647 12.647 12.647c6.983 0 12.648-5.665 12.648-12.647S31.604 11.974 24.62 11.974Zm0 20.85a8.205 8.205 0 0 1 0-16.407 8.205 8.205 0 0 1 0 16.408ZM40.721 11.474A2.953 2.953 0 1 1 37.77 8.52a2.96 2.96 0 0 1 2.952 2.953Z"/></svg>