<svg xmlns="http://www.w3.org/2000/svg" width="50" height="50" fill="none"><path fill="#80BC00" d="M24.621 4.434c6.579 0 7.358.029 9.945.144 2.404.106 3.703.51 4.568.846 1.145.443 1.972.981 2.828 1.837.865.866 1.394 1.683 1.837 2.828.336.865.74 2.173.846 4.568.115 2.597.144 3.376.144 9.945 0 6.578-.029 7.357-.144 9.945-.106 2.404-.51 3.702-.846 4.568-.443 1.144-.981 1.971-1.837 2.828-.866.865-1.683 1.394-2.828 1.836-.865.337-2.173.741-4.568.847-2.597.115-3.376.144-9.945.144-6.578 0-7.357-.029-9.944-.144-2.405-.106-3.703-.51-4.569-.847-1.144-.442-1.971-.98-2.827-1.837-.866-.865-1.395-1.683-1.837-2.827-.337-.866-.741-2.174-.847-4.569-.115-2.596-.144-3.375-.144-9.944 0-6.579.029-7.358.144-9.945.106-2.404.51-3.703.847-4.568.442-1.145.98-1.972 1.837-2.828.865-.865 1.683-1.394 2.827-1.837.866-.336 2.174-.74 4.569-.846 2.587-.115 3.366-.144 9.944-.144Zm0-4.434c-6.684 0-7.52.029-10.146.144C11.858.26 10.06.683 8.502 1.29c-1.625.635-3 1.471-4.366 2.847C2.76 5.5 1.924 6.876 1.289 8.492.683 10.06.259 11.85.144 14.465.03 17.1 0 17.937 0 24.62c0 6.684.029 7.521.144 10.147.116 2.616.539 4.414 1.145 5.972.635 1.626 1.471 3.001 2.847 4.367 1.365 1.365 2.74 2.212 4.356 2.837 1.568.606 3.357 1.029 5.973 1.144 2.625.116 3.462.145 10.146.145 6.685 0 7.521-.03 10.147-.145 2.616-.115 4.415-.538 5.973-1.144 1.615-.625 2.99-1.472 4.356-2.837 1.366-1.366 2.212-2.741 2.838-4.357.606-1.568 1.029-3.357 1.144-5.973.115-2.625.144-3.462.144-10.146 0-6.684-.029-7.521-.144-10.147-.115-2.616-.538-4.414-1.144-5.972-.606-1.635-1.443-3.01-2.818-4.376-1.366-1.366-2.741-2.212-4.357-2.838C39.182.692 37.393.27 34.777.154 32.142.029 31.305 0 24.621 0Z"/><path fill="#80BC00" d="M38.37 19.007s-.274-1.937-1.12-2.787c-1.069-1.119-2.265-1.124-2.813-1.19-3.928-.285-9.825-.285-9.825-.285h-.01s-5.898 0-9.825.285c-.549.066-1.745.071-2.814 1.19-.845.85-1.114 2.787-1.114 2.787s-.285 2.276-.285 4.547v2.129c0 2.27.28 4.547.28 4.547s.274 1.936 1.113 2.787c1.07 1.119 2.474 1.08 3.1 1.2 2.249.215 9.55.28 9.55.28s5.902-.01 9.83-.29c.548-.066 1.744-.071 2.814-1.19.845-.85 1.119-2.787 1.119-2.787s.28-2.271.28-4.547v-2.129c0-2.27-.28-4.547-.28-4.547Zm-16.665 9.26v-7.894l7.586 3.96-7.586 3.933Z"/></svg>